<svg xmlns="http://www.w3.org/2000/svg" viewBox="0 0 24 24">
    <rect width="24" height="24" rx="3" fill="#F7DF1E"/>
    <path d="M6.5 17.5c.7.7 1.7 1.1 2.8 1.1 2 0 3.2-1.1 3.2-2.8V9.5h-2v6.2c0 .8-.3 1.3-1.1 1.3-.6 0-1-.4-1.4-.9l-1.5 1.4zm7.5-.3c.8.9 2 1.4 3.5 1.4 2.1 0 3.4-1.1 3.4-2.8 0-1.5-.9-2.3-2.6-2.8l-.6-.2c-.9-.3-1.3-.5-1.3-1 0-.4.3-.7.9-.7.6 0 1 .3 1.4.8l1.4-1.5c-.8-.9-1.8-1.3-2.9-1.3-1.9 0-3.2 1.1-3.2 2.8 0 1.5 1 2.3 2.6 2.8l.6.2c.9.3 1.4.6 1.4 1.1 0 .5-.4.8-1.1.8-.8 0-1.4-.4-1.8-1l-1.7 1.4z" fill="#000"/>
  </svg>