<svg xmlns="http://www.w3.org/2000/svg" viewBox="0 0 24 24" fill="#3776AB">
    <path d="M11.99 0C5.9 0 6.27 2.64 6.27 2.64l.01 2.73h5.82v.82H3.93S0 5.73 0 11.87c0 6.15 3.4 5.93 3.4 5.93h2.03v-2.85s-.11-3.4 3.35-3.4h5.78s3.24.05 3.24-3.13V3.13S18.33 0 11.99 0zm-3.23 1.81a1.05 1.05 0 1 1 0 2.1 1.05 1.05 0 0 1 0-2.1z" />
    <path d="M12.01 24c6.1 0 5.73-2.64 5.73-2.64l-.01-2.73h-5.82v-.82h8.17S24 18.27 24 12.13c0-6.15-3.4-5.93-3.4-5.93h-2.03v2.85s.11 3.4-3.35 3.4H9.44s-3.24-.05-3.24 3.13v5.29S5.67 24 12.01 24zm3.23-1.81a1.05 1.05 0 1 1 0-2.1 1.05 1.05 0 0 1 0 2.1z" />
  </svg>